<svg width="345" height="403" viewBox="0 0 345 403" fill="none" xmlns="http://www.w3.org/2000/svg">
<path d="M165.012 211.975V138.49H140.162V211.975H165.012Z" fill="#D9D9D9"/>
<path fill-rule="evenodd" clip-rule="evenodd" d="M16.1064 209.295C-3.61651 143.889 -0.398556 86.79 1.29695 69.0264L1.82357 63.5098L7.40674 63.4033C53.2527 62.5372 89.5653 51.3076 116.349 38.4841C142.989 25.727 160.138 11.4126 167.809 4.22295L172.084 0.216309L176.363 4.22545C184.033 11.4151 201.183 25.7295 227.823 38.4866C254.606 51.3101 290.919 62.5405 336.765 63.4058L342.348 63.5123L342.875 69.0289C344.57 86.79 347.788 143.889 328.065 209.297C308.277 274.919 265.489 348.988 175.19 400.548L172.088 402.318L168.982 400.548C78.6827 348.988 35.895 274.922 16.1064 209.295ZM155.246 272.026C158.863 267.572 161.395 262.317 162.841 256.26C164.288 250.203 165.012 242.008 165.012 231.676V225.604H140.162V270.229C140.162 280.739 140.789 288.845 142.045 294.546C143.301 300.247 145.9 305.234 149.846 309.51V310.312H112.452V309.51C115.68 305.234 117.922 300.336 119.178 294.813C120.433 289.112 121.061 281.541 121.061 272.1V164.945C121.061 154.435 120.433 146.329 119.178 140.628C118.102 134.749 115.86 129.673 112.452 125.397V124.595H165.012V100.739H142.225C130.47 100.739 121.427 101.808 115.098 103.946C108.768 106.084 103.795 109.558 100.178 114.367H98.8216V87.1112H250.462V114.367H249.377C245.759 109.558 240.786 106.084 234.457 103.946C228.308 101.808 219.265 100.739 207.329 100.739H184.271V124.595H230.016V150.515H228.94C225.711 146.062 220.958 142.945 214.681 141.163C208.583 139.381 199.706 138.49 188.048 138.49H184.271V211.949C192.778 211.81 199.508 211.107 204.458 209.838C210.018 208.235 214.323 205.741 217.372 202.355H218.448V234.956H217.372C214.502 231.572 210.198 229.166 204.458 227.741C199.508 226.473 192.778 225.769 184.271 225.63V231.676C184.271 242.008 184.995 250.203 186.442 256.26C187.889 262.139 190.42 267.394 194.038 272.026V272.828H155.246V272.026Z" fill="#D9D9D9"/>
</svg>
