<svg width="263" height="35" viewBox="0 0 263 35" fill="none" xmlns="http://www.w3.org/2000/svg">
<path d="M251.916 34.4799C250.156 34.4799 248.428 34.1919 246.732 33.6159C245.036 33.0399 243.5 32.2239 242.124 31.1679V26.3679H242.316C243.564 28.2559 245.02 29.6479 246.684 30.5439C248.348 31.4399 250.092 31.8879 251.916 31.8879C253.228 31.8879 254.46 31.6479 255.612 31.1679C256.764 30.6879 257.676 29.9839 258.348 29.0559C259.052 28.1279 259.404 27.0239 259.404 25.7439C259.404 24.4319 259.004 23.3439 258.204 22.4799C257.436 21.6159 256.156 20.7839 254.364 19.9839L249.66 17.8719C247.388 16.8479 245.708 15.6319 244.62 14.2239C243.532 12.8159 242.988 11.1839 242.988 9.32791C242.988 7.63191 243.436 6.09591 244.332 4.71991C245.26 3.31191 246.524 2.20791 248.124 1.40791C249.756 0.575912 251.612 0.159912 253.692 0.159912C255.26 0.159912 256.78 0.383912 258.252 0.831912C259.756 1.24791 261.02 1.79191 262.044 2.46391V7.07191H261.852C260.86 5.59991 259.66 4.51191 258.252 3.80791C256.844 3.07191 255.324 2.70391 253.692 2.70391C251.58 2.70391 249.836 3.24791 248.46 4.33591C247.084 5.42391 246.396 6.89591 246.396 8.75191C246.396 10.0959 246.78 11.2319 247.548 12.1599C248.348 13.0879 249.596 13.9199 251.292 14.6559L256.092 16.8159C258.364 17.8399 260.044 19.0079 261.132 20.3199C262.252 21.6319 262.812 23.2479 262.812 25.1679C262.812 26.9599 262.332 28.5599 261.372 29.9679C260.412 31.3759 259.1 32.4799 257.436 33.2799C255.772 34.0799 253.932 34.4799 251.916 34.4799Z" fill="#111111"/>
<path d="M237.501 33.9999H214.125V33.8559C214.733 33.0879 215.133 32.1759 215.325 31.1199C215.517 30.0319 215.613 28.5279 215.613 26.6079V7.98389C215.613 6.12789 215.501 4.65589 215.277 3.56789C215.085 2.47989 214.701 1.55189 214.125 0.783894V0.639893H236.829V5.29589H236.637C235.997 4.49589 235.149 3.93589 234.093 3.61589C233.069 3.29589 231.533 3.13589 229.485 3.13589H219.069V15.8559H227.373C229.165 15.8559 230.525 15.7279 231.453 15.4719C232.413 15.1839 233.197 14.7519 233.805 14.1759H233.997V20.0319H233.805C233.197 19.4239 232.413 18.9919 231.453 18.7359C230.525 18.4799 229.165 18.3519 227.373 18.3519H219.069V31.5039H230.253C232.205 31.5039 233.693 31.3119 234.717 30.9279C235.773 30.5119 236.637 29.7599 237.309 28.6719H237.501V33.9999Z" fill="#111111"/>
<path d="M187.5 33.8559C188.076 33.0879 188.476 32.1759 188.7 31.1199C188.924 30.0319 189.036 28.6399 189.036 26.9439V7.93589C189.036 6.07989 188.924 4.62389 188.7 3.56789C188.508 2.51189 188.108 1.58389 187.5 0.783894V0.639893H193.98V0.783894C193.34 1.58389 192.924 2.51189 192.732 3.56789C192.54 4.62389 192.444 6.07989 192.444 7.93589V31.5039H201.708C203.82 31.5039 205.42 31.2799 206.508 30.8319C207.596 30.3519 208.444 29.4559 209.052 28.1439H209.244V33.9999H187.5V33.8559Z" fill="#111111"/>
<path d="M152.034 33.8559C152.738 33.1199 153.33 32.2719 153.81 31.3119C154.322 30.3519 154.914 29.0239 155.586 27.3279C155.65 27.1679 155.682 27.0559 155.682 26.9919C155.714 26.9279 155.762 26.8159 155.826 26.6559L166.098 0.639893H168.93L179.394 26.5119C179.554 26.8639 179.698 27.2159 179.826 27.5679C180.466 29.2319 181.026 30.5279 181.506 31.4559C181.986 32.3519 182.546 33.1519 183.186 33.8559V33.9999H176.658V33.8559C177.074 33.0239 177.186 32.0319 176.994 30.8799C176.834 29.7279 176.418 28.3039 175.746 26.6079L167.202 5.19989H167.01L158.61 26.7039C157.97 28.3999 157.57 29.8079 157.41 30.9279C157.25 32.0479 157.394 33.0239 157.842 33.8559V33.9999H152.034V33.8559ZM158.994 21.0399H175.218V23.5359H158.994V21.0399Z" fill="#111111"/>
<path d="M137.839 33.8559C138.479 33.0559 138.927 32.1119 139.183 31.0239C139.439 29.9359 139.567 28.4639 139.567 26.6079V3.08789H135.535C133.455 3.08789 131.855 3.27989 130.735 3.66389C129.615 4.04789 128.735 4.67189 128.095 5.53589H127.855V0.639893H154.687V5.53589H154.495C153.855 4.67189 152.975 4.04789 151.855 3.66389C150.767 3.27989 149.167 3.08789 147.055 3.08789H142.975V26.6079C142.975 28.4639 143.103 29.9359 143.359 31.0239C143.615 32.0799 144.063 33.0239 144.703 33.8559V33.9999H137.839V33.8559Z" fill="#111111"/>
<path d="M109.597 18.2079L110.365 21.6639L101.677 7.64789C100.653 5.98389 99.7568 4.62389 98.9888 3.56789C98.2528 2.51189 97.4688 1.58389 96.6368 0.783894V0.639893H103.549V0.735894C103.261 1.66389 103.309 2.70389 103.693 3.85589C104.109 4.97589 104.781 6.28789 105.709 7.79189L111.613 17.3439H111.805L117.949 7.83989C118.941 6.27189 119.645 4.92789 120.061 3.80789C120.509 2.68789 120.653 1.67989 120.493 0.783894V0.639893H126.445V0.783894C125.485 1.61589 124.637 2.52789 123.901 3.51989C123.165 4.51189 122.205 5.90389 121.021 7.69589L120.973 7.79189L111.997 21.7119L113.005 18.1599V27.4239C113.005 29.1839 113.101 30.5119 113.293 31.4079C113.517 32.3039 113.933 33.1199 114.541 33.8559V33.9999H108.061V33.8559C108.637 33.1199 109.037 32.3039 109.261 31.4079C109.485 30.5119 109.597 29.1839 109.597 27.4239V18.2079Z" fill="#111111"/>
<path d="M70.1708 33.8559C70.7468 33.0559 71.1468 32.1279 71.3708 31.0719C71.5948 30.0159 71.7068 28.5439 71.7068 26.6559V7.98389C71.7068 6.09589 71.5948 4.62389 71.3708 3.56789C71.1788 2.47989 70.7788 1.55189 70.1708 0.783894V0.639893H80.7308C83.0988 0.639893 85.1468 0.991893 86.8748 1.69589C88.6028 2.36789 89.9308 3.34389 90.8588 4.62389C91.7868 5.87189 92.2508 7.32789 92.2508 8.99189C92.2508 10.6879 91.7708 12.1919 90.8108 13.5039C89.8828 14.7839 88.5388 15.7919 86.7788 16.5279C85.0188 17.2319 82.9548 17.5839 80.5868 17.5839L80.0108 17.4399L82.4588 17.1039L97.1948 33.9039V33.9999H92.6828L78.7148 17.6799H75.1148V26.6559C75.1148 28.5439 75.2108 30.0159 75.4028 31.0719C75.6268 32.1279 76.0268 33.0559 76.6028 33.8559V33.9999H70.1708V33.8559ZM80.1548 15.2319C82.8748 15.2319 84.9548 14.6879 86.3948 13.5999C87.8668 12.4799 88.6028 10.9599 88.6028 9.03989C88.6028 7.11989 87.8828 5.64789 86.4428 4.62389C85.0028 3.56789 82.9068 3.03989 80.1548 3.03989H75.1148V15.2319H80.1548Z" fill="#111111"/>
<path d="M56.2031 33.8559C56.7791 33.0239 57.1791 32.0799 57.4031 31.0239C57.6271 29.9359 57.7391 28.4639 57.7391 26.6079V7.98389C57.7391 6.12789 57.6271 4.65589 57.4031 3.56789C57.1791 2.47989 56.7791 1.55189 56.2031 0.783894V0.639893H62.6831V0.783894C62.1071 1.55189 61.7071 2.47989 61.4831 3.56789C61.2591 4.65589 61.1471 6.12789 61.1471 7.98389V26.6079C61.1471 28.4639 61.2591 29.9359 61.4831 31.0239C61.7071 32.0799 62.1071 33.0239 62.6831 33.8559V33.9999H56.2031V33.8559Z" fill="#111111"/>
<path d="M20.7371 33.8559C21.4411 33.1199 22.0331 32.2719 22.5131 31.3119C23.0251 30.3519 23.6171 29.0239 24.2891 27.3279C24.3531 27.1679 24.3851 27.0559 24.3851 26.9919C24.4171 26.9279 24.4651 26.8159 24.5291 26.6559L34.8011 0.639893H37.6331L48.0971 26.5119C48.2571 26.8639 48.4011 27.2159 48.5291 27.5679C49.1691 29.2319 49.7291 30.5279 50.2091 31.4559C50.6891 32.3519 51.2491 33.1519 51.8891 33.8559V33.9999H45.3611V33.8559C45.7771 33.0239 45.8891 32.0319 45.6971 30.8799C45.5371 29.7279 45.1211 28.3039 44.4491 26.6079L35.9051 5.19989H35.7131L27.3131 26.7039C26.6731 28.3999 26.2731 29.8079 26.1131 30.9279C25.9531 32.0479 26.0971 33.0239 26.5451 33.8559V33.9999H20.7371V33.8559ZM27.6971 21.0399H43.9211V23.5359H27.6971V21.0399Z" fill="#111111"/>
<path d="M0 33.8559C0.576 33.0879 0.976 32.2079 1.2 31.2159C1.424 30.1919 1.536 28.8319 1.536 27.1359V26.8479V7.88789C1.536 5.99989 1.424 4.54389 1.2 3.51989C1.008 2.46389 0.608 1.55189 0 0.783894V0.639893H20.976V5.29589H20.784C20.208 4.49589 19.36 3.93589 18.24 3.61589C17.152 3.29589 15.568 3.13589 13.488 3.13589H4.944V16.3359H12.24C14.032 16.3359 15.424 16.2079 16.416 15.9519C17.408 15.6639 18.176 15.2159 18.72 14.6079H18.912V20.4639H18.72C18.208 19.8559 17.44 19.4239 16.416 19.1679C15.424 18.9119 14.032 18.7839 12.24 18.7839H4.944V26.7999C4.944 28.6879 5.056 30.1439 5.28 31.1679C5.504 32.1919 5.968 33.0879 6.672 33.8559V33.9999H0V33.8559Z" fill="#111111"/>
</svg>
