<svg width="345" height="403" viewBox="0 0 345 403" fill="none" xmlns="http://www.w3.org/2000/svg">
<path d="M165.298 211.759V138.274H140.448V211.759H165.298Z" fill="black"/>
<path fill-rule="evenodd" clip-rule="evenodd" d="M16.393 209.078C-3.32989 143.673 -0.111935 86.5737 1.58357 68.8101L2.11019 63.2934L7.69336 63.187C53.5393 62.3209 89.852 51.0913 116.636 38.2677C143.275 25.5107 160.425 11.1963 168.095 4.00664L172.371 0L176.649 4.00914C184.32 11.1988 201.47 25.5132 228.109 38.2702C254.893 51.0938 291.206 62.3242 337.052 63.1895L342.635 63.2959L343.161 68.8126C344.857 86.5737 348.075 143.673 328.352 209.081C308.563 274.703 265.776 348.772 175.476 400.331L172.374 402.102L169.268 400.331C78.9693 348.772 36.1816 274.705 16.393 209.078ZM155.532 271.809C159.15 267.356 161.681 262.101 163.128 256.044C164.575 249.987 165.298 241.792 165.298 231.46V225.388H140.448V270.012C140.448 280.523 141.076 288.629 142.332 294.329C143.587 300.031 146.187 305.018 150.133 309.293V310.095H112.739V309.293C115.967 305.018 118.209 300.12 119.464 294.597C120.72 288.896 121.348 281.325 121.348 271.883V164.729C121.348 154.218 120.72 146.113 119.464 140.412C118.388 134.533 116.146 129.456 112.739 125.181V124.379H165.298V100.523H142.512C130.756 100.523 121.714 101.592 115.384 103.729C109.055 105.867 104.082 109.342 100.464 114.151H99.1082V86.8949H250.748V114.151H249.663C246.046 109.342 241.073 105.867 234.743 103.729C228.594 101.592 219.552 100.523 207.616 100.523H184.558V124.379H230.302V150.299H229.227C225.998 145.846 221.245 142.728 214.968 140.946C208.87 139.165 199.992 138.274 188.335 138.274H184.558V211.733C193.065 211.594 199.794 210.89 204.745 209.622C210.305 208.018 214.609 205.524 217.658 202.139H218.734V234.74H217.658C214.788 231.355 210.485 228.95 204.745 227.525C199.794 226.256 193.065 225.552 184.558 225.413V231.46C184.558 241.792 185.282 249.987 186.728 256.044C188.175 261.923 190.707 267.178 194.324 271.809V272.611H155.532V271.809Z" fill="black"/>
</svg>
