<svg width="345" height="403" viewBox="0 0 345 403" fill="none" xmlns="http://www.w3.org/2000/svg">
<path d="M165.298 211.975V138.49H140.448V211.975H165.298Z" fill="#111111"/>
<path fill-rule="evenodd" clip-rule="evenodd" d="M16.393 209.295C-3.32989 143.889 -0.111935 86.79 1.58357 69.0264L2.11019 63.5098L7.69336 63.4033C53.5393 62.5372 89.852 51.3076 116.636 38.4841C143.275 25.727 160.425 11.4126 168.095 4.22295L172.371 0.216309L176.649 4.22545C184.32 11.4151 201.47 25.7295 228.109 38.4866C254.893 51.3101 291.206 62.5405 337.052 63.4058L342.635 63.5123L343.161 69.0289C344.857 86.79 348.075 143.889 328.352 209.297C308.563 274.919 265.776 348.988 175.476 400.548L172.374 402.318L169.268 400.548C78.9693 348.988 36.1816 274.922 16.393 209.295ZM155.532 272.026C159.15 267.572 161.681 262.317 163.128 256.26C164.575 250.203 165.298 242.008 165.298 231.676V225.604H140.448V270.229C140.448 280.739 141.076 288.845 142.332 294.546C143.587 300.247 146.187 305.234 150.133 309.51V310.312H112.739V309.51C115.967 305.234 118.209 300.336 119.464 294.813C120.72 289.112 121.348 281.541 121.348 272.1V164.945C121.348 154.435 120.72 146.329 119.464 140.628C118.388 134.749 116.146 129.673 112.739 125.397V124.595H165.298V100.739H142.512C130.756 100.739 121.714 101.808 115.384 103.946C109.055 106.084 104.082 109.558 100.464 114.367H99.1082V87.1112H250.748V114.367H249.663C246.046 109.558 241.073 106.084 234.743 103.946C228.594 101.808 219.552 100.739 207.616 100.739H184.558V124.595H230.302V150.515H229.227C225.998 146.062 221.245 142.945 214.968 141.163C208.87 139.381 199.992 138.49 188.335 138.49H184.558V211.949C193.065 211.81 199.794 211.107 204.745 209.838C210.305 208.235 214.609 205.741 217.658 202.355H218.734V234.956H217.658C214.788 231.572 210.485 229.166 204.745 227.741C199.794 226.473 193.065 225.769 184.558 225.63V231.676C184.558 242.008 185.282 250.203 186.728 256.26C188.175 262.139 190.707 267.394 194.324 272.026V272.828H155.532V272.026Z" fill="#111111"/>
</svg>
