<svg width="264" height="35" viewBox="0 0 264 35" fill="none" xmlns="http://www.w3.org/2000/svg">
<path d="M252.723 34.4799C250.963 34.4799 249.235 34.1919 247.539 33.6159C245.843 33.0399 244.307 32.2239 242.931 31.1679V26.3679H243.123C244.371 28.2559 245.827 29.6479 247.491 30.5439C249.155 31.4399 250.899 31.8879 252.723 31.8879C254.035 31.8879 255.267 31.6479 256.419 31.1679C257.571 30.6879 258.483 29.9839 259.155 29.0559C259.859 28.1279 260.211 27.0239 260.211 25.7439C260.211 24.4319 259.811 23.3439 259.011 22.4799C258.243 21.6159 256.963 20.7839 255.171 19.9839L250.467 17.8719C248.195 16.8479 246.515 15.6319 245.427 14.2239C244.339 12.8159 243.795 11.1839 243.795 9.32791C243.795 7.63191 244.243 6.09591 245.139 4.71991C246.067 3.31191 247.331 2.20791 248.931 1.40791C250.563 0.575912 252.419 0.159912 254.499 0.159912C256.067 0.159912 257.587 0.383912 259.059 0.831912C260.563 1.24791 261.827 1.79191 262.851 2.46391V7.07191H262.659C261.667 5.59991 260.467 4.51191 259.059 3.80791C257.651 3.07191 256.131 2.70391 254.499 2.70391C252.387 2.70391 250.643 3.24791 249.267 4.33591C247.891 5.42391 247.203 6.89591 247.203 8.75191C247.203 10.0959 247.587 11.2319 248.355 12.1599C249.155 13.0879 250.403 13.9199 252.099 14.6559L256.899 16.8159C259.171 17.8399 260.851 19.0079 261.939 20.3199C263.059 21.6319 263.619 23.2479 263.619 25.1679C263.619 26.9599 263.139 28.5599 262.179 29.9679C261.219 31.3759 259.907 32.4799 258.243 33.2799C256.579 34.0799 254.739 34.4799 252.723 34.4799Z" fill="#D9D9D9"/>
<path d="M238.309 33.9999H214.933V33.8559C215.541 33.0879 215.941 32.1759 216.133 31.1199C216.325 30.0319 216.421 28.5279 216.421 26.6079V7.98389C216.421 6.12789 216.309 4.65589 216.085 3.56789C215.893 2.47989 215.509 1.55189 214.933 0.783894V0.639893H237.637V5.29589H237.445C236.805 4.49589 235.957 3.93589 234.901 3.61589C233.877 3.29589 232.341 3.13589 230.293 3.13589H219.877V15.8559H228.181C229.973 15.8559 231.333 15.7279 232.261 15.4719C233.221 15.1839 234.005 14.7519 234.613 14.1759H234.805V20.0319H234.613C234.005 19.4239 233.221 18.9919 232.261 18.7359C231.333 18.4799 229.973 18.3519 228.181 18.3519H219.877V31.5039H231.061C233.013 31.5039 234.501 31.3119 235.525 30.9279C236.581 30.5119 237.445 29.7599 238.117 28.6719H238.309V33.9999Z" fill="#D9D9D9"/>
<path d="M188.308 33.8559C188.884 33.0879 189.284 32.1759 189.508 31.1199C189.732 30.0319 189.844 28.6399 189.844 26.9439V7.93589C189.844 6.07989 189.732 4.62389 189.508 3.56789C189.316 2.51189 188.916 1.58389 188.308 0.783894V0.639893H194.788V0.783894C194.148 1.58389 193.732 2.51189 193.54 3.56789C193.348 4.62389 193.252 6.07989 193.252 7.93589V31.5039H202.516C204.628 31.5039 206.228 31.2799 207.316 30.8319C208.404 30.3519 209.252 29.4559 209.86 28.1439H210.052V33.9999H188.308V33.8559Z" fill="#D9D9D9"/>
<path d="M152.842 33.8559C153.546 33.1199 154.138 32.2719 154.618 31.3119C155.13 30.3519 155.722 29.0239 156.394 27.3279C156.458 27.1679 156.49 27.0559 156.49 26.9919C156.522 26.9279 156.57 26.8159 156.634 26.6559L166.906 0.639893H169.738L180.202 26.5119C180.362 26.8639 180.506 27.2159 180.634 27.5679C181.274 29.2319 181.834 30.5279 182.314 31.4559C182.794 32.3519 183.354 33.1519 183.994 33.8559V33.9999H177.466V33.8559C177.882 33.0239 177.994 32.0319 177.802 30.8799C177.642 29.7279 177.226 28.3039 176.554 26.6079L168.01 5.19989H167.818L159.418 26.7039C158.778 28.3999 158.378 29.8079 158.218 30.9279C158.058 32.0479 158.202 33.0239 158.65 33.8559V33.9999H152.842V33.8559ZM159.802 21.0399H176.026V23.5359H159.802V21.0399Z" fill="#D9D9D9"/>
<path d="M138.647 33.8559C139.287 33.0559 139.735 32.1119 139.991 31.0239C140.247 29.9359 140.375 28.4639 140.375 26.6079V3.08789H136.343C134.263 3.08789 132.663 3.27989 131.543 3.66389C130.423 4.04789 129.543 4.67189 128.903 5.53589H128.663V0.639893H155.495V5.53589H155.303C154.663 4.67189 153.783 4.04789 152.663 3.66389C151.575 3.27989 149.975 3.08789 147.863 3.08789H143.783V26.6079C143.783 28.4639 143.911 29.9359 144.167 31.0239C144.423 32.0799 144.871 33.0239 145.511 33.8559V33.9999H138.647V33.8559Z" fill="#D9D9D9"/>
<path d="M110.404 18.2079L111.172 21.6639L102.484 7.64789C101.46 5.98389 100.564 4.62389 99.7964 3.56789C99.0604 2.51189 98.2764 1.58389 97.4444 0.783894V0.639893H104.356V0.735894C104.068 1.66389 104.116 2.70389 104.5 3.85589C104.916 4.97589 105.588 6.28789 106.516 7.79189L112.42 17.3439H112.612L118.756 7.83989C119.748 6.27189 120.452 4.92789 120.868 3.80789C121.316 2.68789 121.46 1.67989 121.3 0.783894V0.639893H127.252V0.783894C126.292 1.61589 125.444 2.52789 124.708 3.51989C123.972 4.51189 123.012 5.90389 121.828 7.69589L121.78 7.79189L112.804 21.7119L113.812 18.1599V27.4239C113.812 29.1839 113.908 30.5119 114.1 31.4079C114.324 32.3039 114.74 33.1199 115.348 33.8559V33.9999H108.868V33.8559C109.444 33.1199 109.844 32.3039 110.068 31.4079C110.292 30.5119 110.404 29.1839 110.404 27.4239V18.2079Z" fill="#D9D9D9"/>
<path d="M70.9784 33.8559C71.5544 33.0559 71.9544 32.1279 72.1784 31.0719C72.4024 30.0159 72.5144 28.5439 72.5144 26.6559V7.98389C72.5144 6.09589 72.4024 4.62389 72.1784 3.56789C71.9864 2.47989 71.5864 1.55189 70.9784 0.783894V0.639893H81.5384C83.9064 0.639893 85.9544 0.991893 87.6824 1.69589C89.4104 2.36789 90.7384 3.34389 91.6664 4.62389C92.5944 5.87189 93.0584 7.32789 93.0584 8.99189C93.0584 10.6879 92.5784 12.1919 91.6184 13.5039C90.6904 14.7839 89.3464 15.7919 87.5864 16.5279C85.8264 17.2319 83.7624 17.5839 81.3944 17.5839L80.8184 17.4399L83.2664 17.1039L98.0024 33.9039V33.9999H93.4904L79.5224 17.6799H75.9224V26.6559C75.9224 28.5439 76.0184 30.0159 76.2104 31.0719C76.4344 32.1279 76.8344 33.0559 77.4104 33.8559V33.9999H70.9784V33.8559ZM80.9624 15.2319C83.6824 15.2319 85.7624 14.6879 87.2024 13.5999C88.6744 12.4799 89.4104 10.9599 89.4104 9.03989C89.4104 7.11989 88.6904 5.64789 87.2504 4.62389C85.8104 3.56789 83.7144 3.03989 80.9624 3.03989H75.9224V15.2319H80.9624Z" fill="#D9D9D9"/>
<path d="M57.0107 33.8559C57.5867 33.0239 57.9867 32.0799 58.2107 31.0239C58.4347 29.9359 58.5467 28.4639 58.5467 26.6079V7.98389C58.5467 6.12789 58.4347 4.65589 58.2107 3.56789C57.9867 2.47989 57.5867 1.55189 57.0107 0.783894V0.639893H63.4907V0.783894C62.9147 1.55189 62.5147 2.47989 62.2907 3.56789C62.0667 4.65589 61.9547 6.12789 61.9547 7.98389V26.6079C61.9547 28.4639 62.0667 29.9359 62.2907 31.0239C62.5147 32.0799 62.9147 33.0239 63.4907 33.8559V33.9999H57.0107V33.8559Z" fill="#D9D9D9"/>
<path d="M21.5447 33.8559C22.2487 33.1199 22.8407 32.2719 23.3207 31.3119C23.8327 30.3519 24.4247 29.0239 25.0967 27.3279C25.1607 27.1679 25.1927 27.0559 25.1927 26.9919C25.2247 26.9279 25.2727 26.8159 25.3367 26.6559L35.6087 0.639893H38.4407L48.9047 26.5119C49.0647 26.8639 49.2087 27.2159 49.3367 27.5679C49.9767 29.2319 50.5367 30.5279 51.0167 31.4559C51.4967 32.3519 52.0567 33.1519 52.6967 33.8559V33.9999H46.1687V33.8559C46.5847 33.0239 46.6967 32.0319 46.5047 30.8799C46.3447 29.7279 45.9287 28.3039 45.2567 26.6079L36.7127 5.19989H36.5207L28.1207 26.7039C27.4807 28.3999 27.0807 29.8079 26.9207 30.9279C26.7607 32.0479 26.9047 33.0239 27.3527 33.8559V33.9999H21.5447V33.8559ZM28.5047 21.0399H44.7287V23.5359H28.5047V21.0399Z" fill="#D9D9D9"/>
<path d="M0.807617 33.8559C1.38362 33.0879 1.78362 32.2079 2.00762 31.2159C2.23162 30.1919 2.34362 28.8319 2.34362 27.1359V26.8479V7.88789C2.34362 5.99989 2.23162 4.54389 2.00762 3.51989C1.81562 2.46389 1.41562 1.55189 0.807617 0.783894V0.639893H21.7836V5.29589H21.5916C21.0156 4.49589 20.1676 3.93589 19.0476 3.61589C17.9596 3.29589 16.3756 3.13589 14.2956 3.13589H5.75162V16.3359H13.0476C14.8396 16.3359 16.2316 16.2079 17.2236 15.9519C18.2156 15.6639 18.9836 15.2159 19.5276 14.6079H19.7196V20.4639H19.5276C19.0156 19.8559 18.2476 19.4239 17.2236 19.1679C16.2316 18.9119 14.8396 18.7839 13.0476 18.7839H5.75162V26.7999C5.75162 28.6879 5.86362 30.1439 6.08762 31.1679C6.31162 32.1919 6.77562 33.0879 7.47962 33.8559V33.9999H0.807617V33.8559Z" fill="#D9D9D9"/>
</svg>
