<svg width="345" height="403" viewBox="0 0 345 403" fill="none" xmlns="http://www.w3.org/2000/svg">
<path d="M165.012 211.759V138.274H140.162V211.759H165.012Z" fill="white"/>
<path fill-rule="evenodd" clip-rule="evenodd" d="M16.1064 209.078C-3.61651 143.673 -0.398556 86.5737 1.29695 68.8101L1.82357 63.2934L7.40674 63.187C53.2527 62.3209 89.5653 51.0913 116.349 38.2677C142.989 25.5107 160.138 11.1963 167.809 4.00664L172.084 0L176.363 4.00914C184.033 11.1988 201.183 25.5132 227.823 38.2702C254.606 51.0938 290.919 62.3242 336.765 63.1895L342.348 63.2959L342.875 68.8126C344.57 86.5737 347.788 143.673 328.065 209.081C308.277 274.703 265.489 348.772 175.19 400.331L172.088 402.102L168.982 400.331C78.6827 348.772 35.895 274.705 16.1064 209.078ZM155.246 271.809C158.863 267.356 161.395 262.101 162.841 256.044C164.288 249.987 165.012 241.792 165.012 231.46V225.388H140.162V270.012C140.162 280.523 140.789 288.629 142.045 294.329C143.301 300.031 145.9 305.018 149.846 309.293V310.095H112.452V309.293C115.68 305.018 117.922 300.12 119.178 294.597C120.433 288.896 121.061 281.325 121.061 271.883V164.729C121.061 154.218 120.433 146.113 119.178 140.412C118.102 134.533 115.86 129.456 112.452 125.181V124.379H165.012V100.523H142.225C130.47 100.523 121.427 101.592 115.098 103.729C108.768 105.867 103.795 109.342 100.178 114.151H98.8216V86.8949H250.462V114.151H249.377C245.759 109.342 240.786 105.867 234.457 103.729C228.308 101.592 219.265 100.523 207.329 100.523H184.271V124.379H230.016V150.299H228.94C225.711 145.846 220.958 142.728 214.681 140.946C208.583 139.165 199.706 138.274 188.048 138.274H184.271V211.733C192.778 211.594 199.508 210.89 204.458 209.622C210.018 208.018 214.323 205.524 217.372 202.139H218.448V234.74H217.372C214.502 231.355 210.198 228.95 204.458 227.525C199.508 226.256 192.778 225.552 184.271 225.413V231.46C184.271 241.792 184.995 249.987 186.442 256.044C187.889 261.923 190.42 267.178 194.038 271.809V272.611H155.246V271.809Z" fill="white"/>
</svg>
